<svg width="20" height="20" viewBox="0 0 20 20" fill="none" xmlns="http://www.w3.org/2000/svg">
<path d="M8.23996 9.63928C6.71736 9.63928 5.47876 10.8777 5.47876 12.4C5.47876 13.9222 6.71736 15.1606 8.23996 15.1606C9.76176 15.1606 11 13.9222 11 12.4C10.9998 10.8777 9.76176 9.63928 8.23996 9.63928ZM8.23996 14.5628C7.04699 14.5628 6.07664 13.5926 6.07664 12.4C6.07664 11.2076 7.04719 10.2372 8.23996 10.2372C9.43213 10.2372 10.4021 11.2074 10.4021 12.4C10.4019 13.5926 9.43213 14.5628 8.23996 14.5628Z" fill="black"/>
<path d="M2.43322 9.63928C2.268 9.63928 2.13428 9.77301 2.13428 9.93823V14.8617C2.13428 15.0269 2.268 15.1606 2.43322 15.1606C2.59843 15.1606 2.73215 15.0269 2.73215 14.8617V9.93823C2.73215 9.77321 2.59843 9.63928 2.43322 9.63928Z" fill="black"/>
<path d="M13.952 9.63928C13.7868 9.63928 13.6531 9.77301 13.6531 9.93823V14.8617C13.6531 15.0269 13.7868 15.1606 13.952 15.1606C14.1172 15.1606 14.251 15.0269 14.251 14.8617V9.93823C14.251 9.77321 14.117 9.63928 13.952 9.63928Z" fill="black"/>
<path d="M18.8249 4.44995H4.30649C4.14127 4.44995 4.00755 4.58368 4.00755 4.7489V6.21334H2.68046C2.51524 6.21334 2.38152 6.34707 2.38152 6.51229V8.14096H0.913929C0.748716 8.14096 0.61499 8.27469 0.61499 8.43991V16.3596C0.61499 16.5248 0.748716 16.6586 0.913929 16.6586H15.4324C15.5976 16.6586 15.7313 16.5248 15.7313 16.3596V14.731H17.1989C17.3641 14.731 17.4979 14.5972 17.4979 14.432V12.9668H18.8249C18.9902 12.9668 19.1239 12.833 19.1239 12.6678V4.7487C19.1239 4.58388 18.99 4.44995 18.8249 4.44995ZM15.1335 16.0609H1.21287V8.73905H15.1335V16.0609ZM15.7313 14.1333V8.44011C15.7313 8.27489 15.5976 8.14116 15.4324 8.14116H2.9794V6.81144H16.9V14.1333H15.7313ZM18.526 12.3691H17.4979V6.51229C17.4979 6.34707 17.3641 6.21334 17.1989 6.21334H4.60542V5.04785H18.526V12.3691Z" fill="black"/>
</svg>
