<svg width="18" height="18" viewBox="0 0 18 18" fill="none" xmlns="http://www.w3.org/2000/svg">
<path d="M14.614 6.32677C14.6127 5.26337 14.2995 4.2237 13.7132 3.33652C13.1269 2.44934 12.2933 1.75361 11.3155 1.3355C10.3378 0.917382 9.25885 0.795251 8.21237 0.984224C7.16589 1.1732 6.19783 1.66498 5.42807 2.39866C4.6583 3.13234 4.12065 4.0757 3.88169 5.1119C3.64273 6.14811 3.71297 7.23165 4.08369 8.22834C4.45442 9.22503 5.10935 10.0911 5.96739 10.7193C6.82543 11.3474 7.84887 11.7101 8.91099 11.7624V13.5268C8.91099 13.5977 8.93915 13.6657 8.98929 13.7158C9.03942 13.7659 9.10742 13.7941 9.17832 13.7941C9.42648 13.7987 9.66777 13.8764 9.87191 14.0176C10.076 14.1588 10.2339 14.3572 10.3258 14.5878C10.4176 14.8184 10.4392 15.0709 10.388 15.3138C10.3368 15.5567 10.2151 15.779 10.0379 15.9529C9.86085 16.1268 9.63633 16.2445 9.39257 16.2913C9.1488 16.3381 8.89666 16.3118 8.66777 16.2158C8.43888 16.1198 8.24345 15.9583 8.10599 15.7516C7.96854 15.545 7.89519 15.3023 7.89515 15.0541C7.89515 14.9832 7.86698 14.9152 7.81685 14.8651C7.76672 14.8149 7.69872 14.7868 7.62782 14.7868C7.55692 14.7868 7.48893 14.8149 7.43879 14.8651C7.38866 14.9152 7.36049 14.9832 7.36049 15.0541C7.35745 15.4029 7.45481 15.7452 7.64095 16.0401C7.82709 16.3351 8.09416 16.5703 8.4103 16.7176C8.72643 16.865 9.07828 16.9182 9.42386 16.8711C9.76945 16.824 10.0942 16.6784 10.3593 16.4518C10.6245 16.2252 10.8188 15.9271 10.9192 15.5931C11.0195 15.259 11.0217 14.9032 10.9254 14.568C10.8291 14.2327 10.6383 13.9323 10.376 13.7025C10.1136 13.4727 9.79063 13.3232 9.44564 13.2719V11.7624C10.8398 11.692 12.1537 11.0886 13.1156 10.077C14.0775 9.06532 14.6139 7.72274 14.614 6.32677ZM5.63891 9.71291L6.54426 8.80757C6.57052 8.78309 6.59159 8.75358 6.6062 8.72079C6.62081 8.68799 6.62867 8.6526 6.6293 8.6167C6.62993 8.58081 6.62333 8.54515 6.60988 8.51187C6.59644 8.47858 6.57643 8.44834 6.55104 8.42296C6.52566 8.39757 6.49542 8.37756 6.46213 8.36412C6.42885 8.35067 6.39319 8.34407 6.3573 8.3447C6.3214 8.34534 6.28601 8.35319 6.25321 8.3678C6.22042 8.38241 6.19091 8.40348 6.16644 8.42974L5.2896 9.30658C4.68524 8.52581 4.33224 7.57992 4.27733 6.5941H5.43574C5.50664 6.5941 5.57464 6.56594 5.62477 6.5158C5.6749 6.46567 5.70307 6.39767 5.70307 6.32677C5.70307 6.25587 5.6749 6.18788 5.62477 6.13774C5.57464 6.08761 5.50664 6.05945 5.43574 6.05945H4.27733C4.34316 4.85191 4.85248 3.71119 5.7076 2.85606C6.56273 2.00094 7.70345 1.49161 8.91099 1.42578V2.5842C8.91099 2.6551 8.93915 2.72309 8.98929 2.77323C9.03942 2.82336 9.10742 2.85153 9.17832 2.85153C9.24922 2.85153 9.31721 2.82336 9.36735 2.77323C9.41748 2.72309 9.44564 2.6551 9.44564 2.5842V1.42578C10.5161 1.48375 11.5377 1.89275 12.3524 2.58955L11.4613 3.48064C11.435 3.50511 11.414 3.53462 11.3993 3.56741C11.3847 3.60021 11.3769 3.6356 11.3762 3.6715C11.3756 3.70739 11.3822 3.74305 11.3957 3.77633C11.4091 3.80962 11.4291 3.83986 11.4545 3.86524C11.4799 3.89063 11.5101 3.91064 11.5434 3.92408C11.5767 3.93753 11.6124 3.94413 11.6482 3.9435C11.6841 3.94287 11.7195 3.93501 11.7523 3.9204C11.7851 3.90579 11.8146 3.88472 11.8391 3.85846L12.7427 2.95489C13.5436 3.79763 14.0175 4.89848 14.0793 6.05945H12.9209C12.85 6.05945 12.782 6.08761 12.7319 6.13774C12.6817 6.18788 12.6536 6.25587 12.6536 6.32677C12.6536 6.39767 12.6817 6.46567 12.7319 6.5158C12.782 6.56594 12.85 6.5941 12.9209 6.5941H14.0793C14.0135 7.80164 13.5042 8.94236 12.649 9.79749C11.7939 10.6526 10.6532 11.1619 9.44564 11.2278V10.0693C9.44564 9.99845 9.41748 9.93045 9.36735 9.88032C9.31721 9.83019 9.24922 9.80202 9.17832 9.80202C9.10742 9.80202 9.03942 9.83019 8.98929 9.88032C8.93915 9.93045 8.91099 9.99845 8.91099 10.0693V11.2278C7.66682 11.1579 6.49634 10.6154 5.63891 9.71113V9.71291Z" fill="black"/>
<path d="M9.08922 7.84157C9.28939 7.8412 9.48771 7.80311 9.67377 7.72929L11.0104 9.60058C11.0529 9.6547 11.1145 9.69037 11.1826 9.70018C11.2507 9.70999 11.3199 9.69317 11.376 9.65324C11.432 9.6133 11.4704 9.55331 11.4833 9.48575C11.4962 9.41819 11.4826 9.34825 11.4453 9.29048L10.1336 7.45306C10.4182 7.19515 10.6009 6.84365 10.6483 6.46247C10.6957 6.0813 10.6048 5.69576 10.392 5.37596C10.1792 5.05616 9.85878 4.82333 9.48888 4.71981C9.11897 4.6163 8.72421 4.64896 8.37635 4.81187L7.17694 3.06355C7.13578 3.00764 7.07448 2.96994 7.00602 2.95842C6.93755 2.9469 6.86729 2.96247 6.8101 3.00183C6.75291 3.04119 6.71328 3.10126 6.69959 3.16932C6.6859 3.23739 6.69922 3.30811 6.73675 3.36652L7.94506 5.1291C7.7288 5.35524 7.5834 5.63969 7.52677 5.94744C7.47015 6.25518 7.50478 6.57276 7.62639 6.86107C7.748 7.14937 7.95129 7.39581 8.21121 7.57003C8.47113 7.74425 8.77633 7.83864 9.08922 7.84157ZM10.1585 6.23761C10.1585 6.4491 10.0958 6.65584 9.97832 6.83169C9.86082 7.00753 9.69382 7.14459 9.49843 7.22552C9.30304 7.30646 9.08803 7.32763 8.88061 7.28637C8.67318 7.24511 8.48265 7.14327 8.33311 6.99373C8.18356 6.84418 8.08172 6.65365 8.04046 6.44622C7.9992 6.2388 8.02038 6.0238 8.10131 5.82841C8.18224 5.63302 8.3193 5.46601 8.49515 5.34852C8.67099 5.23102 8.87773 5.1683 9.08922 5.1683C9.37282 5.1683 9.6448 5.28096 9.84533 5.4815C10.0459 5.68203 10.1585 5.95401 10.1585 6.23761Z" fill="black"/>
</svg>
