<svg width="24" height="24" viewBox="0 0 24 24" fill="none" xmlns="http://www.w3.org/2000/svg">
<path d="M6.24002 11.76C5.84238 11.76 5.52002 12.0824 5.52002 12.48C5.52002 12.8777 5.84238 13.2 6.24002 13.2V11.76ZM17.76 13.2C18.1577 13.2 18.48 12.8777 18.48 12.48C18.48 12.0824 18.1577 11.76 17.76 11.76V13.2ZM6.24002 15.6C5.84238 15.6 5.52002 15.9224 5.52002 16.32C5.52002 16.7177 5.84238 17.04 6.24002 17.04V15.6ZM17.76 17.04C18.1577 17.04 18.48 16.7177 18.48 16.32C18.48 15.9224 18.1577 15.6 17.76 15.6V17.04ZM6.24002 7.92004C5.84238 7.92004 5.52002 8.2424 5.52002 8.64004C5.52002 9.03769 5.84238 9.36004 6.24002 9.36004V7.92004ZM17.76 9.36004C18.1577 9.36004 18.48 9.03769 18.48 8.64004C18.48 8.2424 18.1577 7.92004 17.76 7.92004V9.36004ZM6.24002 13.2H17.76V11.76H6.24002V13.2ZM6.24002 17.04H17.76V15.6H6.24002V17.04ZM6.24002 9.36004H17.76V7.92004H6.24002V9.36004Z" fill="black"/>
</svg>
