<svg width="18" height="18" viewBox="0 0 18 18" fill="none" xmlns="http://www.w3.org/2000/svg">
<path d="M12.4499 16.5001C12.3581 16.5001 12.2662 16.4963 12.1739 16.4896C10.6572 16.3738 9.20499 15.8274 7.98819 14.9146C6.13037 13.5211 4.48011 11.8706 3.08694 10.0126C2.17397 8.79579 1.62753 7.3436 1.51194 5.8268C1.47197 5.31178 1.54406 4.79424 1.72325 4.30974C1.90244 3.82528 2.18447 3.38536 2.54994 3.02031L3.48969 2.07943C3.86083 1.70894 4.36382 1.50085 4.88826 1.50085C5.41269 1.50085 5.91568 1.70894 6.28682 2.07943L7.13657 2.92956C7.32024 3.11321 7.46593 3.33124 7.56534 3.57121C7.66476 3.81118 7.71591 4.06839 7.71591 4.32811C7.71591 4.58784 7.66476 4.84505 7.56534 5.08501C7.46593 5.32498 7.32024 5.54304 7.13657 5.72668L6.64907 6.21418C6.44886 6.41521 6.32424 6.67925 6.29631 6.96159C6.26837 7.24396 6.33879 7.52728 6.49569 7.76368C7.48239 9.24646 8.75436 10.5181 10.2374 11.5043C10.4739 11.6609 10.7572 11.7312 11.0395 11.7032C11.3218 11.6753 11.5858 11.5509 11.7869 11.3509L12.2744 10.8634C12.4581 10.6798 12.6761 10.5341 12.9161 10.4347C13.1561 10.3352 13.4133 10.2841 13.673 10.2841C13.9327 10.2841 14.1899 10.3352 14.4299 10.4347C14.6699 10.5341 14.8879 10.6798 15.0716 10.8634L15.9217 11.7132C16.1054 11.8969 16.2511 12.1149 16.3505 12.3548C16.4499 12.5948 16.501 12.852 16.501 13.1117C16.501 13.3715 16.4499 13.6287 16.3505 13.8686C16.2511 14.1086 16.1054 14.3267 15.9217 14.5103L14.9797 15.4501C14.6477 15.7827 14.2534 16.0467 13.8193 16.2269C13.3853 16.407 12.9199 16.4999 12.4499 16.5001ZM4.88807 2.25006C4.72686 2.24985 4.56714 2.28148 4.41819 2.34313C4.26921 2.40477 4.13387 2.49523 4.01994 2.60931L3.07907 3.55056C2.79015 3.83919 2.56718 4.187 2.42547 4.57003C2.28377 4.95305 2.2267 5.36225 2.25819 5.76943C2.3635 7.14399 2.85905 8.45994 3.68657 9.56255C5.03721 11.3632 6.63681 12.9628 8.43744 14.3134C9.53998 15.1411 10.856 15.6367 12.2306 15.7418C12.6377 15.7728 13.0467 15.7154 13.4297 15.5738C13.8127 15.4321 14.1605 15.2094 14.4494 14.9209L15.3903 13.9801C15.6206 13.7497 15.7499 13.4374 15.7499 13.1117C15.7499 12.7861 15.6206 12.4738 15.3903 12.2434L14.5402 11.3937C14.3064 11.1702 13.9955 11.0455 13.6721 11.0455C13.3487 11.0455 13.0377 11.1702 12.8039 11.3937L12.3164 11.8812C11.9926 12.2036 11.5674 12.4042 11.1127 12.4492C10.6579 12.4943 10.2016 12.3809 9.82082 12.1283C8.25557 11.0871 6.91326 9.7448 5.87207 8.17955C5.61939 7.79878 5.50599 7.34244 5.55103 6.88771C5.59607 6.43299 5.79677 6.00774 6.11919 5.68393L6.60669 5.19643C6.83694 4.96618 6.96628 4.65391 6.96628 4.3283C6.96628 4.00269 6.83694 3.69042 6.60669 3.46018L5.75657 2.60968C5.64261 2.49553 5.50719 2.405 5.35817 2.34328C5.20914 2.28157 5.04939 2.24989 4.88807 2.25006Z" fill="black"/>
</svg>
