<svg width="24" height="24" viewBox="0 0 24 24" fill="none" xmlns="http://www.w3.org/2000/svg">
<path d="M4.14052 19.1525C3.94857 19.351 3.95396 19.6676 4.15247 19.8595C4.35104 20.0514 4.66758 20.0461 4.85949 19.8475L19.3595 4.84754C19.5514 4.64897 19.5461 4.33243 19.3475 4.14052C19.149 3.94857 18.8324 3.95396 18.6405 4.15247L4.14052 19.1525Z" fill="black"/>
<path d="M18.6405 19.8475C18.8324 20.046 19.149 20.0514 19.3475 19.8595C19.546 19.6676 19.5514 19.351 19.3595 19.1525L4.85948 4.15249C4.66757 3.95395 4.35103 3.94858 4.15249 4.14051C3.95395 4.33242 3.94858 4.64896 4.14051 4.8475L18.6405 19.8475Z" fill="black"/>
</svg>
