<svg width="16" height="17" viewBox="0 0 16 17" fill="none" xmlns="http://www.w3.org/2000/svg">
<path d="M8.00008 7.00004C8.73646 7.00004 9.33341 6.40309 9.33341 5.66671C9.33341 4.93033 8.73646 4.33337 8.00008 4.33337C7.2637 4.33337 6.66675 4.93033 6.66675 5.66671C6.66675 6.40309 7.2637 7.00004 8.00008 7.00004Z" fill="black"/>
<path d="M10.6133 11.1533L12.2333 8.33329C12.6687 7.59019 12.8982 6.74452 12.8982 5.88329C12.8982 5.02205 12.6687 4.17638 12.2333 3.43329C11.8028 2.69004 11.1845 2.07303 10.4403 1.6441C9.69612 1.21516 8.85227 0.98938 7.99333 0.98938C7.1344 0.98938 6.29055 1.21516 5.54638 1.6441C4.80221 2.07303 4.18387 2.69004 3.75333 3.43329C3.31798 4.17638 3.08849 5.02205 3.08849 5.88329C3.08849 6.74452 3.31798 7.59019 3.75333 8.33329L5.37333 11.14C2.66667 11.4733 0 12.3333 0 14C0 16.06 4.14667 17 8 17C11.8533 17 16 16.06 16 14C16 12.3333 13.3333 11.4733 10.6133 11.1533ZM4.91333 4.11329C5.13922 3.69433 5.44683 3.32493 5.81797 3.02693C6.1891 2.72893 6.61623 2.50838 7.07408 2.37831C7.53194 2.24825 8.01122 2.21133 8.4836 2.26972C8.95597 2.32811 9.41184 2.48063 9.82425 2.71826C10.2366 2.9559 10.5972 3.27382 10.8846 3.65322C11.172 4.03263 11.3804 4.46581 11.4975 4.92716C11.6146 5.3885 11.6379 5.86864 11.5662 6.33918C11.4945 6.80971 11.3292 7.26109 11.08 7.66662L8 13L4.92 7.66662C4.60581 7.12748 4.43971 6.51486 4.43854 5.89085C4.43737 5.26684 4.60116 4.6536 4.91333 4.11329ZM8 15.6666C3.6 15.6666 1.33333 14.5 1.33333 14C1.33333 13.6466 2.76667 12.7 6.12 12.4133L7.02 13.9666C7.11967 14.1382 7.26265 14.2806 7.43463 14.3796C7.60661 14.4786 7.80156 14.5307 8 14.5307C8.19844 14.5307 8.39339 14.4786 8.56537 14.3796C8.73735 14.2806 8.88033 14.1382 8.98 13.9666L9.88 12.4133C13.2333 12.7 14.6667 13.6666 14.6667 14C14.6667 14.5 12.4 15.6666 8 15.6666Z" fill="black"/>
</svg>
