<svg width="20" height="20" viewBox="0 0 20 20" fill="none" xmlns="http://www.w3.org/2000/svg">
<path d="M19.8124 10.7491L18.2114 7.22695C18.0787 6.93593 17.8652 6.68915 17.5963 6.51596C17.3274 6.34277 17.0144 6.25046 16.6945 6.25H13.7492V5C13.7488 4.66859 13.617 4.35086 13.3827 4.11652C13.1483 3.88217 12.8306 3.75036 12.4992 3.75H2.0825C1.75109 3.75036 1.43336 3.88217 1.19901 4.11652C0.964673 4.35086 0.832861 4.66859 0.832499 5V10C0.831966 10.0551 0.842349 10.1097 0.863049 10.1607C0.883749 10.2117 0.914356 10.2581 0.953099 10.2972C0.991842 10.3364 1.03795 10.3674 1.08877 10.3886C1.13959 10.4098 1.1941 10.4207 1.24916 10.4207C1.30422 10.4207 1.35873 10.4098 1.40955 10.3886C1.46036 10.3674 1.50648 10.3364 1.54522 10.2972C1.58396 10.2581 1.61457 10.2117 1.63527 10.1607C1.65597 10.1097 1.66635 10.0551 1.66582 10V5C1.66594 4.88953 1.70988 4.78362 1.788 4.7055C1.86611 4.62738 1.97203 4.58344 2.0825 4.58332H12.4992C12.6096 4.58344 12.7156 4.62738 12.7937 4.7055C12.8718 4.78362 12.9157 4.88953 12.9159 5V11.6667C12.9157 11.7771 12.8718 11.883 12.7936 11.9611C12.7155 12.0392 12.6096 12.0832 12.4992 12.0833H7.49918C7.38937 12.0844 7.28442 12.1288 7.20715 12.2068C7.12988 12.2848 7.08653 12.3902 7.08653 12.5C7.08653 12.6098 7.12988 12.7152 7.20715 12.7932C7.28442 12.8712 7.38937 12.9156 7.49918 12.9166H12.4992C12.8306 12.9163 13.1483 12.7845 13.3827 12.5501C13.617 12.3158 13.7488 11.9981 13.7492 11.6666V7.08332H16.6945C16.8544 7.08354 17.011 7.12969 17.1455 7.21629C17.28 7.30288 17.3868 7.42627 17.4532 7.5718L17.6099 7.91664H15.8326C15.6116 7.91686 15.3998 8.00473 15.2435 8.16096C15.0873 8.3172 14.9994 8.52904 14.9992 8.75V10.4167C14.9994 10.6376 15.0873 10.8495 15.2435 11.0057C15.3997 11.1619 15.6116 11.2498 15.8325 11.25H19.1114C19.1472 11.367 19.1656 11.4886 19.1658 11.6109V13.3334C19.1657 13.4438 19.1217 13.5497 19.0436 13.6278C18.9655 13.7059 18.8596 13.7498 18.7492 13.75H17.4571C17.3611 13.2795 17.1054 12.8566 16.7335 12.5529C16.3615 12.2492 15.896 12.0833 15.4158 12.0833C14.9356 12.0833 14.4701 12.2492 14.0982 12.5529C13.7262 12.8566 13.4705 13.2795 13.3745 13.75H6.62383C6.52777 13.2795 6.27212 12.8566 5.90015 12.5529C5.52818 12.2492 5.06271 12.0833 4.5825 12.0833C4.10229 12.0833 3.63682 12.2492 3.26485 12.5529C2.89287 12.8566 2.63723 13.2795 2.54117 13.75H2.0825C1.97203 13.7499 1.86613 13.7059 1.78802 13.6278C1.70991 13.5497 1.66596 13.4438 1.66582 13.3333V12.9167C1.77563 12.9156 1.88057 12.8713 1.95784 12.7932C2.03512 12.7152 2.07846 12.6098 2.07846 12.5C2.07846 12.3902 2.03512 12.2848 1.95784 12.2068C1.88057 12.1288 1.77563 12.0844 1.66582 12.0834H0.415819C0.306013 12.0844 0.201065 12.1288 0.123794 12.2068C0.0465219 12.2848 0.00317383 12.3902 0.00317383 12.5C0.00317383 12.6098 0.0465219 12.7152 0.123794 12.7932C0.201065 12.8713 0.306013 12.9156 0.415819 12.9167H0.832499V13.3334C0.832861 13.6648 0.964673 13.9825 1.19901 14.2168C1.43336 14.4512 1.75109 14.583 2.0825 14.5834H2.54121C2.63727 15.0539 2.89291 15.4767 3.26489 15.7804C3.63686 16.0841 4.10233 16.25 4.58254 16.25C5.06275 16.25 5.52821 16.0841 5.90019 15.7804C6.27216 15.4767 6.52781 15.0539 6.62387 14.5834H13.3745C13.4706 15.0539 13.7262 15.4767 14.0982 15.7804C14.4702 16.0841 14.9356 16.25 15.4159 16.25C15.8961 16.25 16.3615 16.0841 16.7335 15.7804C17.1055 15.4767 17.3611 15.0539 17.4572 14.5834H18.7492C19.0806 14.583 19.3983 14.4512 19.6327 14.2168C19.867 13.9825 19.9988 13.6648 19.9992 13.3334V11.6109C19.9997 11.3136 19.936 11.0196 19.8124 10.7491ZM4.5825 15.4167C4.33527 15.4167 4.0936 15.3434 3.88804 15.206C3.68247 15.0687 3.52226 14.8734 3.42765 14.645C3.33304 14.4166 3.30829 14.1653 3.35652 13.9228C3.40475 13.6803 3.5238 13.4576 3.69862 13.2828C3.87343 13.108 4.09616 12.9889 4.33864 12.9407C4.58111 12.8925 4.83245 12.9172 5.06085 13.0118C5.28926 13.1064 5.48448 13.2667 5.62184 13.4722C5.75919 13.6778 5.8325 13.9195 5.8325 14.1667C5.83214 14.4981 5.70032 14.8158 5.46598 15.0502C5.23164 15.2845 4.91391 15.4163 4.5825 15.4167ZM15.4158 15.4167C15.1686 15.4167 14.9269 15.3434 14.7214 15.206C14.5158 15.0687 14.3556 14.8734 14.261 14.645C14.1664 14.4166 14.1416 14.1653 14.1898 13.9228C14.2381 13.6803 14.3571 13.4576 14.5319 13.2828C14.7067 13.108 14.9295 12.9889 15.172 12.9407C15.4144 12.8925 15.6658 12.9172 15.8942 13.0118C16.1226 13.1064 16.3178 13.2667 16.4552 13.4722C16.5925 13.6778 16.6658 13.9195 16.6658 14.1667C16.6655 14.4981 16.5336 14.8158 16.2993 15.0502C16.065 15.2845 15.7473 15.4163 15.4159 15.4167H15.4158ZM15.8325 8.75H17.9885L18.7461 10.4167H15.8325V8.75Z" fill="black"/>
<path d="M0.415819 11.6667H2.49914C2.60895 11.6656 2.71389 11.6213 2.79116 11.5432C2.86844 11.4652 2.91178 11.3598 2.91178 11.25C2.91178 11.1402 2.86844 11.0348 2.79116 10.9568C2.71389 10.8788 2.60895 10.8344 2.49914 10.8334H0.415819C0.306013 10.8344 0.201065 10.8788 0.123794 10.9568C0.0465219 11.0348 0.00317383 11.1402 0.00317383 11.25C0.00317383 11.3598 0.0465219 11.4652 0.123794 11.5432C0.201065 11.6213 0.306013 11.6656 0.415819 11.6667Z" fill="black"/>
</svg>
