<svg width="86" height="24" viewBox="0 0 86 24" fill="none" xmlns="http://www.w3.org/2000/svg">
<path d="M12.752 19.256C13.3067 19.256 13.7653 19.4373 14.128 19.8C14.512 20.1413 14.704 20.5893 14.704 21.144C14.704 21.6773 14.512 22.1253 14.128 22.488C13.7653 22.8293 13.3067 23 12.752 23H2.352C1.79733 23 1.328 22.8187 0.944 22.456C0.581333 22.072 0.4 21.6027 0.4 21.048V2.552C0.4 1.99733 0.592 1.53867 0.976 1.176C1.36 0.791999 1.85067 0.599998 2.448 0.599998C2.96 0.599998 3.408 0.791999 3.792 1.176C4.19733 1.53867 4.4 1.99733 4.4 2.552V19.8L3.696 19.256H12.752ZM38.6643 11.8C38.6643 13.4 38.3976 14.8933 37.8643 16.28C37.3309 17.6667 36.5736 18.8933 35.5923 19.96C34.6323 21.0053 33.4803 21.8267 32.1363 22.424C30.8136 23.0213 29.3629 23.32 27.7843 23.32C26.2056 23.32 24.7549 23.0213 23.4323 22.424C22.1096 21.8267 20.9576 21.0053 19.9763 19.96C19.0163 18.8933 18.2696 17.6667 17.7363 16.28C17.2029 14.8933 16.9363 13.4 16.9363 11.8C16.9363 10.2 17.2029 8.70667 17.7363 7.32C18.2696 5.93333 19.0163 4.71733 19.9763 3.672C20.9576 2.60533 22.1096 1.77333 23.4323 1.176C24.7549 0.578665 26.2056 0.279999 27.7843 0.279999C29.3629 0.279999 30.8136 0.578665 32.1363 1.176C33.4803 1.77333 34.6323 2.60533 35.5923 3.672C36.5736 4.71733 37.3309 5.93333 37.8643 7.32C38.3976 8.70667 38.6643 10.2 38.6643 11.8ZM34.5043 11.8C34.5043 10.3707 34.2163 9.08 33.6403 7.928C33.0643 6.75467 32.2749 5.82667 31.2723 5.144C30.2696 4.46133 29.1069 4.12 27.7843 4.12C26.4616 4.12 25.2989 4.46133 24.2963 5.144C23.2936 5.82667 22.5043 6.744 21.9283 7.896C21.3736 9.048 21.0963 10.3493 21.0963 11.8C21.0963 13.2293 21.3736 14.5307 21.9283 15.704C22.5043 16.856 23.2936 17.7733 24.2963 18.456C25.2989 19.1387 26.4616 19.48 27.7843 19.48C29.1069 19.48 30.2696 19.1387 31.2723 18.456C32.2749 17.7733 33.0643 16.856 33.6403 15.704C34.2163 14.5307 34.5043 13.2293 34.5043 11.8ZM52.8975 23.32C51.2762 23.32 49.7615 23.0213 48.3535 22.424C46.9455 21.8267 45.7082 21.0053 44.6415 19.96C43.5748 18.8933 42.7322 17.6667 42.1135 16.28C41.5162 14.8933 41.2175 13.4 41.2175 11.8C41.2175 10.2 41.5162 8.70667 42.1135 7.32C42.7322 5.93333 43.5748 4.71733 44.6415 3.672C45.7082 2.60533 46.9455 1.77333 48.3535 1.176C49.7615 0.578665 51.2762 0.279999 52.8975 0.279999C53.9002 0.279999 54.8708 0.386665 55.8095 0.599998C56.7482 0.813332 57.6122 1.13333 58.4015 1.56C58.7215 1.73067 58.9562 1.96533 59.1055 2.264C59.2762 2.54133 59.3615 2.82933 59.3615 3.128C59.3615 3.64 59.1908 4.09867 58.8495 4.504C58.5082 4.90933 58.0708 5.112 57.5375 5.112C57.3668 5.112 57.1855 5.09067 56.9935 5.048C56.8228 5.00533 56.6522 4.94133 56.4815 4.856C55.9482 4.62133 55.3828 4.44 54.7855 4.312C54.1882 4.184 53.5588 4.12 52.8975 4.12C51.5108 4.12 50.2415 4.472 49.0895 5.176C47.9588 5.85867 47.0522 6.78667 46.3695 7.96C45.7082 9.112 45.3775 10.392 45.3775 11.8C45.3775 13.1867 45.7082 14.4667 46.3695 15.64C47.0522 16.8133 47.9588 17.752 49.0895 18.456C50.2415 19.1387 51.5108 19.48 52.8975 19.48C53.5375 19.48 54.2415 19.416 55.0095 19.288C55.7775 19.16 56.4068 18.9893 56.8975 18.776L56.6095 19.736V14.264L57.1535 14.744H53.6015C53.0468 14.744 52.5775 14.5627 52.1935 14.2C51.8308 13.8373 51.6495 13.3787 51.6495 12.824C51.6495 12.2693 51.8308 11.8107 52.1935 11.448C52.5775 11.0853 53.0468 10.904 53.6015 10.904H58.8495C59.4042 10.904 59.8628 11.096 60.2255 11.48C60.5882 11.8427 60.7695 12.3013 60.7695 12.856V19.64C60.7695 20.0667 60.6628 20.4187 60.4495 20.696C60.2575 20.9733 60.0335 21.1973 59.7775 21.368C58.7962 21.9653 57.7188 22.4453 56.5455 22.808C55.3935 23.1493 54.1775 23.32 52.8975 23.32ZM85.2268 11.8C85.2268 13.4 84.9601 14.8933 84.4268 16.28C83.8934 17.6667 83.1361 18.8933 82.1548 19.96C81.1948 21.0053 80.0428 21.8267 78.6988 22.424C77.3761 23.0213 75.9254 23.32 74.3468 23.32C72.7681 23.32 71.3174 23.0213 69.9948 22.424C68.6721 21.8267 67.5201 21.0053 66.5388 19.96C65.5788 18.8933 64.8321 17.6667 64.2988 16.28C63.7654 14.8933 63.4988 13.4 63.4988 11.8C63.4988 10.2 63.7654 8.70667 64.2988 7.32C64.8321 5.93333 65.5788 4.71733 66.5388 3.672C67.5201 2.60533 68.6721 1.77333 69.9948 1.176C71.3174 0.578665 72.7681 0.279999 74.3468 0.279999C75.9254 0.279999 77.3761 0.578665 78.6988 1.176C80.0428 1.77333 81.1948 2.60533 82.1548 3.672C83.1361 4.71733 83.8934 5.93333 84.4268 7.32C84.9601 8.70667 85.2268 10.2 85.2268 11.8ZM81.0668 11.8C81.0668 10.3707 80.7788 9.08 80.2028 7.928C79.6268 6.75467 78.8374 5.82667 77.8348 5.144C76.8321 4.46133 75.6694 4.12 74.3468 4.12C73.0241 4.12 71.8614 4.46133 70.8588 5.144C69.8561 5.82667 69.0668 6.744 68.4908 7.896C67.9361 9.048 67.6588 10.3493 67.6588 11.8C67.6588 13.2293 67.9361 14.5307 68.4908 15.704C69.0668 16.856 69.8561 17.7733 70.8588 18.456C71.8614 19.1387 73.0241 19.48 74.3468 19.48C75.6694 19.48 76.8321 19.1387 77.8348 18.456C78.8374 17.7733 79.6268 16.856 80.2028 15.704C80.7788 14.5307 81.0668 13.2293 81.0668 11.8Z" fill="black"/>
</svg>
